<svg version="1.1" baseProfile="basic" id="svg-flags"
	 xmlns="http://www.w3.org/2000/svg" xmlns:xlink="http://www.w3.org/1999/xlink" x="0px" y="0px" role="presentation" alt="" height="100" width="100"
	 viewBox="0 0 100 100" xml:space="preserve">
<style type="text/css">
<![CDATA[
	.st0{fill:none; stroke: #0f8ec7;}
]]>
</style>
<g>
	<g>
		<polyline class="st0" points="42.3,68.6 42.3,71.6 50,71.6 50,54.7 45.6,54.7 		"/>
		<line class="st0" x1="45.5" y1="68.5" x2="42.4" y2="71.6"/>
		<rect x="22" y="51.5" class="st0" width="23.6" height="16.9"/>
		<line class="st0" x1="21.9" y1="84.6" x2="22" y2="51.5"/>
		<circle class="st0" cx="22" cy="49.7" r="1.5"/>
		<polyline class="st0" points="32.2,52 32.2,60 22.5,60 		"/>
		<line class="st0" x1="20.5" y1="84.8" x2="23.5" y2="84.8"/>
	</g>
	<g>
		<polyline class="st0" points="38,32.1 30.1,26.4 38,20.7 		"/>
		<polyline class="st0" points="18.5,34.7 26.5,29 34.4,34.7 		"/>
		<polyline class="st0" points="15,20.7 22.9,26.4 15,32.1 		"/>
		<polyline class="st0" points="34.5,18.1 26.5,23.8 18.5,18.1 		"/>
		<polyline class="st0" points="35,35.1 35,38.1 42.7,38.1 42.7,21.2 38.3,21.2 		"/>
		<line class="st0" x1="38.2" y1="34.9" x2="35.1" y2="38"/>
		<rect x="14.7" y="17.9" class="st0" width="23.6" height="16.9"/>
		<line class="st0" x1="14.6" y1="51" x2="14.7" y2="18"/>
		<circle class="st0" cx="14.7" cy="16.2" r="1.5"/>
		<line class="st0" x1="13.2" y1="51.3" x2="16.2" y2="51.3"/>
	</g>
	<g>
		<polyline class="st0" points="74.8,35.1 74.8,38.1 82.5,38.1 82.5,21.2 78,21.2 		"/>
		<line class="st0" x1="77.9" y1="34.9" x2="74.9" y2="38"/>
		<rect x="54.5" y="17.9" class="st0" width="23.6" height="16.9"/>
		<line class="st0" x1="54.4" y1="51" x2="54.5" y2="18"/>
		<circle class="st0" cx="54.5" cy="16.2" r="1.5"/>
		<line class="st0" x1="53" y1="51.3" x2="56" y2="51.3"/>
		<line class="st0" x1="62.3" y1="17.9" x2="62.3" y2="34.8"/>
		<line class="st0" x1="70.2" y1="17.9" x2="70.2" y2="34.8"/>
	</g>
	<g>
		<line class="st0" x1="73.3" y1="59.9" x2="85.1" y2="59.9"/>
		<polygon class="st0" points="61.6,51.4 61.6,68.3 73.4,59.9 		"/>
		<circle class="st0" cx="65.4" cy="59.9" r="1.8"/>
		<polyline class="st0" points="81.9,68.6 81.9,71.6 89.6,71.6 89.6,54.7 85.2,54.7 		"/>
		<line class="st0" x1="85.1" y1="68.5" x2="82" y2="71.6"/>
		<rect x="61.6" y="51.5" class="st0" width="23.6" height="16.9"/>
		<line class="st0" x1="61.5" y1="84.6" x2="61.6" y2="51.5"/>
		<circle class="st0" cx="61.6" cy="49.7" r="1.5"/>
		<line class="st0" x1="60.1" y1="84.8" x2="63.1" y2="84.8"/>
	</g>
</g>
</svg>
