<?xml version="1.0" encoding="utf-8"?>
<!-- Generator: Adobe Illustrator 15.1.0, SVG Export Plug-In . SVG Version: 6.00 Build 0)  -->
<!DOCTYPE svg PUBLIC "-//W3C//DTD SVG 1.1//EN" "http://www.w3.org/Graphics/SVG/1.1/DTD/svg11.dtd">
<svg version="1.1" id="レイヤー_1" xmlns="http://www.w3.org/2000/svg" xmlns:xlink="http://www.w3.org/1999/xlink" x="0px"
	 y="0px" width="100px" height="100px" viewBox="0 0 100 100" enable-background="new 0 0 100 100" xml:space="preserve">
<g>
	<path fill="none" stroke="#0F8EC7" stroke-miterlimit="10" d="M44.355,74.695c0.604-2.016,2.923-3.529,5.645-3.529
		s5.039,1.412,5.544,3.428 M44.355,25.507c0.604,2.018,2.923,3.428,5.645,3.428s5.039-1.41,5.544-3.325 M50,28.935v42.333
		 M26.214,41.735h47.573 M26.214,57.762h47.573 M53.932,27.726c0,0,10.784,21.167,0,44.651 M55.039,26.617
		c0,0,29.028,20.863,0.505,47.068 M44.859,26.617c0,0-28.927,20.863-0.504,47.068 M45.768,27.726c0,0-10.786,21.167,0,44.651
		 M27.524,22.585c5.24-4.334,11.792-7.156,18.948-7.861 M14.723,46.473c0.706-7.156,3.527-13.708,7.862-18.948 M22.483,72.377
		c-4.334-5.242-7.055-11.793-7.761-18.848 M46.473,85.277c-7.156-0.705-13.708-3.527-18.948-7.861 M72.477,77.416
		c-5.241,4.334-11.793,7.156-18.948,7.861 M85.276,53.529c-0.705,7.154-3.527,13.605-7.76,18.947 M77.415,27.524
		c4.334,5.24,7.156,11.792,7.861,18.948 M53.528,14.724c7.155,0.705,13.707,3.527,18.948,7.861 M46.473,14.521
		c0-1.915,1.612-3.527,3.527-3.527s3.528,1.612,3.528,3.527c0,1.914-1.613,3.527-3.528,3.527S46.473,16.436,46.473,14.521
		 M53.528,85.479c0,1.916-1.613,3.527-3.528,3.527s-3.527-1.611-3.527-3.527c0-1.914,1.612-3.527,3.527-3.527
		S53.528,83.564,53.528,85.479z M18.049,50c0,1.916-1.612,3.529-3.526,3.529c-1.916,0-3.528-1.613-3.528-3.529
		c0-1.914,1.612-3.527,3.528-3.527C16.437,46.473,18.049,48.086,18.049,50z M89.006,50c0,1.916-1.612,3.529-3.528,3.529
		c-1.915,0-3.526-1.613-3.526-3.529c0-1.914,1.611-3.527,3.526-3.527C87.394,46.473,89.006,48.086,89.006,50z M78.624,24.903
		c0,1.915-1.511,3.427-3.426,3.427c-1.916,0-3.528-1.512-3.528-3.427c0-2.016,1.612-3.528,3.528-3.528
		C77.113,21.375,78.624,22.888,78.624,24.903z M28.329,24.903c0,1.915-1.612,3.427-3.527,3.427c-1.914,0-3.427-1.512-3.427-3.427
		c0-2.016,1.513-3.528,3.427-3.528C26.717,21.375,28.329,22.888,28.329,24.903z M78.624,75.199c0,1.914-1.511,3.527-3.426,3.527
		c-1.916,0-3.528-1.613-3.528-3.527c0-1.916,1.612-3.529,3.528-3.529C77.113,71.67,78.624,73.283,78.624,75.199z M28.329,75.199
		c0,1.914-1.612,3.527-3.527,3.527c-1.914,0-3.427-1.613-3.427-3.527c0-1.916,1.513-3.529,3.427-3.529
		C26.717,71.67,28.329,73.283,28.329,75.199z M75.198,50c0,13.91-11.289,25.199-25.198,25.199C36.09,75.199,24.802,63.91,24.802,50
		c0-13.909,11.288-25.097,25.198-25.097C63.909,24.903,75.198,36.091,75.198,50z"/>
</g>
</svg>
