<svg version="1.1" baseProfile="basic" id="svg-handshake"
	 xmlns="http://www.w3.org/2000/svg" xmlns:xlink="http://www.w3.org/1999/xlink" x="0px" y="0px" role="presentation" alt="" height="100" width="100" 
	 viewBox="0 0 100 100" xml:space="preserve">
<style type="text/css">
<![CDATA[
	.st0{fill:none; stroke: #0f8ec7;}
]]>
</style>
<g>
	<path class="st0" d="M49.5,76.8l1.1,0.9c1.1,1.1,2.8,1.1,3.8,0c0.7-0.7,1-1.8,0.7-2.8c1.1,0.5,2.5,0.3,3.4-0.6c1-1,1.2-2.6,0.4-3.8
		c1.3,1,3.2,1,4.4-0.3c1.1-1.1,1.3-2.8,0.5-4.1c1,0.4,2.1,0.2,2.9-0.6c1.1-1.1,1.1-2.8,0-3.8L52.8,47.4"/>
	<line class="st0" x1="27.7" y1="64.1" x2="31.4" y2="64.1"/>
	<line class="st0" x1="50.9" y1="38.9" x2="27.7" y2="38.9"/>
	<g>
		<path class="st0" d="M49.9,72.1c-1-1-2.6-1-3.6,0l-2.2,2.2c-1,1-1,2.6,0,3.6c1,1,2.6,1,3.6,0l2.2-2.2C50.9,74.6,50.9,73,49.9,72.1
			z"/>
		<path class="st0" d="M42.4,63.9c-1.1-1.1-2.9-1.1-4,0L36,66.3c-1.1,1.1-1.1,2.9,0,4c1.1,1.1,2.9,1.1,4,0l2.4-2.4
			C43.5,66.8,43.5,65,42.4,63.9z"/>
		<path class="st0" d="M46.4,67.9c-1.1-1.1-2.9-1.1-4,0L40,70.3c-1.1,1.1-1.1,2.9,0,4c1.1,1.1,2.9,1.1,4,0l2.4-2.4
			C47.5,70.8,47.5,69,46.4,67.9z"/>
		<path class="st0" d="M38.3,60.4c-1-1-2.6-1-3.6,0l-2.2,2.2c-1,1-1,2.6,0,3.6c1,1,2.6,1,3.6,0l2.2-2.2C39.3,63,39.3,61.4,38.3,60.4
			z"/>
	</g>
	<path class="st0" d="M73.7,38.9H65c0,0,0,0-4.5-1.7c-3.5-1.3-6.8-1.1-10.8,2.9L38.3,51.5c3.4,3.4,7.6,2.1,11-1.3l2.9-2.9l14.3,14.5
		c0.4,0.4,0.7,1,0.8,1.6l0,0h6.4"/>
	<line class="st0" x1="49.8" y1="30.4" x2="49.8" y2="20.7"/>
	<line class="st0" x1="40.8" y1="30.4" x2="37" y2="24.2"/>
	<line class="st0" x1="59" y1="30.4" x2="62.5" y2="24.2"/>
	<g>
		<g>
			<path class="st0" d="M74.2,64.4c0,0.5,0.4,0.9,0.9,0.9h6c0.5,0,0.9-0.4,0.9-0.9V37.2c0-0.5-0.4-0.9-0.9-0.9h-6
				c-0.5,0-0.9,0.4-0.9,0.9V64.4z"/>
		</g>
		<rect x="81.9" y="38.9" class="st0" width="9.3" height="24"/>
		<path class="st0" d="M85.1,43.9c0-0.8,0.7-1.5,1.5-1.5c0.8,0,1.5,0.7,1.5,1.5c0,0.8-0.7,1.5-1.5,1.5
			C85.7,45.4,85.1,44.7,85.1,43.9z"/>
	</g>
	<g>
		<g>
			<path class="st0" d="M27.7,64.4c0,0.5-0.4,0.9-0.9,0.9h-6c-0.5,0-0.9-0.4-0.9-0.9V37.2c0-0.5,0.4-0.9,0.9-0.9h6
				c0.5,0,0.9,0.4,0.9,0.9V64.4z"/>
		</g>
		<rect x="10.7" y="38.9" class="st0" width="9.3" height="24"/>
		<path class="st0" d="M16.8,43.9c0-0.8-0.7-1.5-1.5-1.5c-0.8,0-1.5,0.7-1.5,1.5c0,0.8,0.7,1.5,1.5,1.5
			C16.1,45.4,16.8,44.7,16.8,43.9z"/>
	</g>
	<line class="st0" x1="52" y1="47.4" x2="54.5" y2="44.9"/>
</g>
</svg>
