<?xml version="1.0" encoding="UTF-8"?>
<svg width="20px" height="20px" viewBox="0 0 20 20" version="1.1" xmlns="http://www.w3.org/2000/svg" xmlns:xlink="http://www.w3.org/1999/xlink">
    <title>Instagram</title>
    <g id="Design-System" stroke="none" stroke-width="1" fill="none" fill-rule="evenodd">
        <g id="Design-system_Icons" transform="translate(-1527.000000, -247.000000)" fill="#000000" fill-rule="nonzero">
            <path d="M1544.08008,267 C1545.69141,267 1547,265.691406 1547,264.080078 L1547,249.919922 C1547,248.308594 1545.69141,247 1544.08008,247 L1529.91992,247 C1528.30859,247 1527,248.308594 1527,249.919922 L1527,264.080078 C1527,265.691406 1528.30859,267 1529.91992,267 L1544.08008,267 Z M1544.5,252.419922 L1542,252.419922 C1541.76562,252.419922 1541.58008,252.234375 1541.58008,252 L1541.58008,249.5 C1541.58008,249.265625 1541.76562,249.080078 1542,249.080078 L1544.5,249.080078 C1544.73438,249.080078 1544.91992,249.265625 1544.91992,249.5 L1544.91992,252 C1544.91992,252.234375 1544.73438,252.419922 1544.5,252.419922 Z M1537,260.75 C1534.92969,260.75 1533.25,259.070312 1533.25,257 C1533.25,254.929688 1534.92969,253.25 1537,253.25 C1539.07031,253.25 1540.75,254.929688 1540.75,257 C1540.75,259.070312 1539.07031,260.75 1537,260.75 Z M1544.5,264.919922 L1529.5,264.919922 C1529.26562,264.919922 1529.08008,264.734375 1529.08008,264.5 L1529.08008,255.75 L1531.29688,255.75 C1531.20898,256.150391 1531.16992,256.570312 1531.16992,257 C1531.16992,260.222656 1533.77734,262.830078 1537,262.830078 C1540.22266,262.830078 1542.83008,260.222656 1542.83008,257 C1542.83008,256.570312 1542.79102,256.150391 1542.70312,255.75 L1544.91992,255.75 L1544.91992,264.5 C1544.91992,264.734375 1544.73438,264.919922 1544.5,264.919922 Z" id="Instagram"></path>
        </g>
    </g>
</svg>