<svg width="20" height="20" viewBox="0 0 20 20" fill="none" xmlns="http://www.w3.org/2000/svg">
<path fill-rule="evenodd" clip-rule="evenodd" d="M18.9286 8.10339C18.4713 3.40608 14.2337 -0.203528 9.41396 0.00891594C4.65728 0.218554 0.820331 4.24247 0.833285 9.05507C0.846239 13.8405 4.38741 16.9734 7.05872 17.6405C6.97474 17.2329 6.905 16.8233 6.84822 16.4125C6.74265 16.2756 6.58893 16.1661 6.378 16.0649C3.38499 14.6274 1.61764 11.1942 2.14034 7.92678C2.85885 3.43393 7.01965 0.550174 11.5162 1.42867C15.677 2.24152 18.496 6.56986 17.5521 10.7015C16.9672 13.2619 15.4786 15.102 13.1184 16.2447C13.0895 16.2587 13.0582 16.2697 13.0268 16.2808C12.9587 16.3048 12.89 16.329 12.8439 16.384C12.7863 16.8289 12.7127 17.2715 12.6198 17.7109C15.6999 16.9231 19.4427 13.3841 18.9286 8.10339ZM9.94244 6.23263C8.66735 6.21946 7.62758 7.23138 7.63341 8.4797C7.63902 9.68593 8.63691 10.6799 9.83881 10.6769C11.0582 10.6741 12.0753 9.65182 12.0634 8.44106C12.052 7.28406 11.0532 6.24407 9.94244 6.23263ZM11.4557 18.1221C11.8573 16.9178 11.9887 15.6712 12.0209 14.4091C12.0209 14.2977 12.0234 14.1862 12.0259 14.0746V14.0745V14.0745C12.0314 13.8304 12.0369 13.5862 12.0162 13.3443C11.9166 12.181 10.9647 11.3064 9.83083 11.3133C8.67102 11.3204 7.67206 12.2672 7.65025 13.4561C7.62435 14.8789 7.72452 16.2978 8.09371 17.6802C8.28521 18.3972 8.54861 19.0937 9.10174 19.6252C9.62206 20.1252 10.0517 20.1205 10.569 19.6375C11.0153 19.2208 11.2672 18.6871 11.4557 18.1221ZM9.47841 3.20615C12.4222 3.11742 14.9463 4.98796 15.6155 7.77889C16.2833 10.5642 14.8148 13.1925 13.0204 14.1652C13.0243 14.0544 13.0278 13.9437 13.0306 13.8327C13.0306 13.6707 13.0341 13.5083 13.0377 13.346C13.043 13.1016 13.0483 12.8573 13.0416 12.6139C13.0543 12.6036 13.0669 12.5932 13.0779 12.5822C14.4439 11.2382 14.9063 9.62439 14.3743 7.79357C13.8514 5.99319 12.5984 4.90851 10.7749 4.49183C7.84103 3.82146 4.90373 6.35352 5.10733 9.35754C5.19196 10.6082 5.65722 11.6752 6.54888 12.5528C6.58537 12.5887 6.61451 12.6234 6.63783 12.6584C6.63179 13.1606 6.63718 13.6623 6.65661 14.163C5.10797 13.4257 3.38596 10.9429 3.91146 8.09237C4.40889 5.39299 6.80191 3.28668 9.47841 3.20615Z" fill="#AA1DD3"/>
</svg>
