<?xml version="1.0" encoding="UTF-8"?>
<svg width="22px" height="23px" viewBox="0 0 22 23" version="1.1" xmlns="http://www.w3.org/2000/svg" xmlns:xlink="http://www.w3.org/1999/xlink">
    <title>Group</title>
    <g id="Design-System" stroke="none" stroke-width="1" fill="none" fill-rule="evenodd">
        <g id="Design-system_Icons---White" transform="translate(-232.000000, -352.000000)" fill="#FFFFFF" fill-rule="nonzero" stroke="#FFFFFF" stroke-width="0.5">
            <g id="Group" transform="translate(233.626224, 353.273114)">
                <rect id="Rectangle" x="4.40389294" y="17.2992701" width="15.1824818" height="1"></rect>
                <path d="M2.35766423,20 C1.06326034,20 0.0097323601,18.946472 0.0097323601,17.6520681 C0.0097323601,16.3576642 1.06326034,15.3041363 2.35766423,15.3041363 C3.65206813,15.3041363 4.70559611,16.3576642 4.70559611,17.6520681 C4.70559611,18.946472 3.65206813,20 2.35766423,20 Z M2.35766423,16.0340633 C1.46472019,16.0340633 0.739659367,16.7591241 0.739659367,17.6520681 C0.739659367,18.5450122 1.46472019,19.270073 2.35766423,19.270073 C3.25060827,19.270073 3.9756691,18.5450122 3.9756691,17.6520681 C3.9756691,16.7591241 3.25060827,16.0340633 2.35766423,16.0340633 Z" id="Shape"></path>
                <rect id="Rectangle" x="15.9124088" y="9.6350365" width="3.67396594" height="1"></rect>
                <rect id="Rectangle" x="0.364963504" y="9.6350365" width="11.3868613" height="1"></rect>
                <path d="M13.836983,12.3479319 C12.5425791,12.3479319 11.4890511,11.2944039 11.4890511,10 C11.4890511,8.70559611 12.5425791,7.65206813 13.836983,7.65206813 C15.1313869,7.65206813 16.1849148,8.70559611 16.1849148,10 C16.1849148,11.2944039 15.1313869,12.3479319 13.836983,12.3479319 Z M13.836983,8.38199513 C12.9440389,8.38199513 12.2189781,9.10705596 12.2189781,10 C12.2189781,10.892944 12.9440389,11.6180049 13.836983,11.6180049 C14.729927,11.6180049 15.4549878,10.892944 15.4549878,10 C15.4549878,9.10705596 14.729927,8.38199513 13.836983,8.38199513 Z" id="Shape"></path>
                <rect id="Rectangle" x="8.61313869" y="1.97080292" width="10.973236" height="1"></rect>
                <rect id="Rectangle" x="0.364963504" y="1.97080292" width="4.08759124" height="1"></rect>
                <path d="M6.53284672,4.69586375 C5.23844282,4.69586375 4.18491484,3.64233577 4.18491484,2.34793187 C4.18491484,1.05352798 5.23844282,0 6.53284672,0 C7.82725061,0 8.88077859,1.05352798 8.88077859,2.34793187 C8.88077859,3.64233577 7.82725061,4.69586375 6.53284672,4.69586375 Z M6.53284672,0.729927007 C5.63990268,0.729927007 4.91484185,1.45498783 4.91484185,2.34793187 C4.91484185,3.24087591 5.63990268,3.96593674 6.53284672,3.96593674 C7.42579075,3.96593674 8.15085158,3.24087591 8.15085158,2.34793187 C8.15085158,1.45498783 7.42579075,0.729927007 6.53284672,0.729927007 Z" id="Shape"></path>
            </g>
        </g>
    </g>
</svg>