<?xml version="1.0" encoding="UTF-8"?>
<svg width="20px" height="20px" viewBox="0 0 20 20" version="1.1" xmlns="http://www.w3.org/2000/svg" xmlns:xlink="http://www.w3.org/1999/xlink">
    <!-- Generator: Sketch 63.1 (92452) - https://sketch.com -->
    <title>ms-icon-linkedin</title>
    <desc>Created with Sketch.</desc>
    <g id="Design-System" stroke="none" stroke-width="1" fill="none" fill-rule="evenodd">
        <g id="Design-system_Icons" transform="translate(-1327.000000, -246.000000)" fill="#000000" fill-rule="nonzero">
            <path d="M1327.42,266 L1327.42,252.80286 L1331.58,252.80286 L1331.58,266 L1327.42,266 Z M1338.24,266 L1334.08,266 L1334.08,255.785495 L1334.02,252.80286 L1338.12,252.80286 L1338.24,254.621042 C1339.22,253.129724 1340.46,252.373851 1342,252.373851 C1343.5,252.373851 1344.7,252.905005 1345.62,253.946885 C1346.54,254.988764 1347,256.459653 1347,258.339122 L1347,266 L1342.84,266 L1342.84,258.768131 C1342.84,256.745659 1341.92,255.785495 1340.56,255.785495 C1339.22,255.785495 1338.24,256.704801 1338.24,258.339122 L1338.24,266 Z M1329.48,250.678243 L1329.46,250.678243 C1328,250.678243 1327,249.656793 1327,248.328907 C1327,247.001021 1328,246 1329.52,246 C1331.02,246 1331.98,247.001021 1332,248.328907 C1332,249.656793 1331,250.678243 1329.48,250.678243 Z" id="ms-icon-linkedin"></path>
        </g>
    </g>
</svg>