<?xml version="1.0" encoding="UTF-8"?>
<svg width="11px" height="11px" viewBox="0 0 11 11" version="1.1" xmlns="http://www.w3.org/2000/svg" xmlns:xlink="http://www.w3.org/1999/xlink">
    <!-- Generator: Sketch 64 (93537) - https://sketch.com -->
    <title>ms-icon-rss-bl</title>
    <desc>Created with Sketch.</desc>
    <g id="Design-System" stroke="none" stroke-width="1" fill="none" fill-rule="evenodd">
        <g id="Design-system_Icons---Blue" transform="translate(-958.000000, -251.000000)" fill="#187ABA" fill-rule="nonzero">
            <g id="ms-icon-rss" transform="translate(958.000000, 251.000000)">
                <path d="M0.366666667,4.00277778 L1.20694444,4.00277778 C4.36944444,4.00277778 6.93611111,6.56944444 6.93611111,9.73194444 L6.93611111,10.5722222 C6.93611111,10.7402778 7.07361111,10.8777778 7.24166667,10.8777778 L7.77638889,10.8777778 C7.94444444,10.8777778 8.08194444,10.7402778 8.08194444,10.5722222 L8.08194444,9.73194444 C8.08194444,5.92777778 5.01111111,2.85694444 1.20694444,2.85694444 L0.366666667,2.85694444 C0.198611111,2.85694444 0.0611111111,2.99444444 0.0611111111,3.1625 L0.0611111111,3.69722222 C0.0611111111,3.86527778 0.198611111,4.00277778 0.366666667,4.00277778 C0.366666667,4.00277778 0.366666667,4.00277778 0.366666667,4.00277778 Z" id="Path"></path>
                <path d="M0.366666667,1.14583333 L1.20694444,1.14583333 C5.95833333,1.14583333 9.80833333,4.99583333 9.80833333,9.73194444 C9.80833333,9.73194444 9.80833333,9.73194444 9.80833333,9.73194444 L9.80833333,10.5722222 C9.80833333,10.7402778 9.94583333,10.8777778 10.1138889,10.8777778 L10.6486111,10.8777778 C10.8166667,10.8777778 10.9541667,10.7402778 10.9541667,10.5722222 L10.9541667,9.73194444 C10.9388889,4.35416667 6.58472222,0 1.20694444,0 L0.366666667,0 C0.198611111,0 0.0611111111,0.1375 0.0611111111,0.305555556 L0.0611111111,0.840277778 C0.0611111111,1.00833333 0.198611111,1.14583333 0.366666667,1.14583333 C0.366666667,1.14583333 0.366666667,1.14583333 0.366666667,1.14583333 Z" id="Path"></path>
                <path d="M0.366666667,6.875 L1.20694444,6.875 C2.79583333,6.875 4.07916667,8.15833333 4.07916667,9.73194444 L4.07916667,10.5722222 C4.07916667,10.7402778 4.21666667,10.8777778 4.38472222,10.8777778 L4.91944444,10.8777778 C5.0875,10.8777778 5.225,10.7402778 5.225,10.5722222 L5.225,9.73194444 C5.225,7.51666667 3.4375,5.72916667 1.22222222,5.72916667 L0.381944444,5.72916667 C0.213888889,5.72916667 0.0763888889,5.86666667 0.0763888889,6.03472222 L0.0763888889,6.56944444 C0.0611111111,6.7375 0.198611111,6.875 0.366666667,6.875 Z" id="Path"></path>
                <circle id="Oval" cx="1.20694444" cy="9.73194444" r="1.14583333"></circle>
            </g>
        </g>
    </g>
</svg>