<?xml version="1.0" encoding="UTF-8"?>
<svg width="20px" height="20px" viewBox="0 0 20 20" version="1.1" xmlns="http://www.w3.org/2000/svg" xmlns:xlink="http://www.w3.org/1999/xlink">
    <!-- Generator: Sketch 64 (93537) - https://sketch.com -->
    <title>ms-icon-instagram-wt</title>
    <desc>Created with Sketch.</desc>
    <g id="Design-System" stroke="none" stroke-width="1" fill="none" fill-rule="evenodd">
        <g id="Design-system_Icons---White" transform="translate(-1567.000000, -297.000000)" fill="#FFFFFF" fill-rule="nonzero">
            <g id="Group" transform="translate(116.000000, 205.000000)">
                <path d="M1468.08008,112 C1469.69141,112 1471,110.691406 1471,109.080078 L1471,94.9199219 C1471,93.3085938 1469.69141,92 1468.08008,92 L1453.91992,92 C1452.30859,92 1451,93.3085938 1451,94.9199219 L1451,109.080078 C1451,110.691406 1452.30859,112 1453.91992,112 L1468.08008,112 Z M1468.5,97.4199219 L1466,97.4199219 C1465.76562,97.4199219 1465.58008,97.234375 1465.58008,97 L1465.58008,94.5 C1465.58008,94.265625 1465.76562,94.0800781 1466,94.0800781 L1468.5,94.0800781 C1468.73438,94.0800781 1468.91992,94.265625 1468.91992,94.5 L1468.91992,97 C1468.91992,97.234375 1468.73438,97.4199219 1468.5,97.4199219 Z M1461,105.75 C1458.92969,105.75 1457.25,104.070312 1457.25,102 C1457.25,99.9296875 1458.92969,98.25 1461,98.25 C1463.07031,98.25 1464.75,99.9296875 1464.75,102 C1464.75,104.070312 1463.07031,105.75 1461,105.75 Z M1468.5,109.919922 L1453.5,109.919922 C1453.26562,109.919922 1453.08008,109.734375 1453.08008,109.5 L1453.08008,100.75 L1455.29688,100.75 C1455.20898,101.150391 1455.16992,101.570312 1455.16992,102 C1455.16992,105.222656 1457.77734,107.830078 1461,107.830078 C1464.22266,107.830078 1466.83008,105.222656 1466.83008,102 C1466.83008,101.570312 1466.79102,101.150391 1466.70312,100.75 L1468.91992,100.75 L1468.91992,109.5 C1468.91992,109.734375 1468.73438,109.919922 1468.5,109.919922 Z" id="ms-icon-instagram-wt"></path>
            </g>
        </g>
    </g>
</svg>