<?xml version="1.0" encoding="UTF-8"?>
<svg width="20px" height="20px" viewBox="0 0 20 20" version="1.1" xmlns="http://www.w3.org/2000/svg" xmlns:xlink="http://www.w3.org/1999/xlink">
    <!-- Generator: Sketch 64 (93537) - https://sketch.com -->
    <title>ms-icon-instagram-gr</title>
    <desc>Created with Sketch.</desc>
    <g id="Design-System" stroke="none" stroke-width="1" fill="none" fill-rule="evenodd">
        <g id="Design-system_Icons---Gray" transform="translate(-1437.000000, -286.000000)" fill="#767676" fill-rule="nonzero">
            <path d="M1454.08008,306 C1455.69141,306 1457,304.691406 1457,303.080078 L1457,288.919922 C1457,287.308594 1455.69141,286 1454.08008,286 L1439.91992,286 C1438.30859,286 1437,287.308594 1437,288.919922 L1437,303.080078 C1437,304.691406 1438.30859,306 1439.91992,306 L1454.08008,306 Z M1454.5,291.419922 L1452,291.419922 C1451.76562,291.419922 1451.58008,291.234375 1451.58008,291 L1451.58008,288.5 C1451.58008,288.265625 1451.76562,288.080078 1452,288.080078 L1454.5,288.080078 C1454.73438,288.080078 1454.91992,288.265625 1454.91992,288.5 L1454.91992,291 C1454.91992,291.234375 1454.73438,291.419922 1454.5,291.419922 Z M1447,299.75 C1444.92969,299.75 1443.25,298.070312 1443.25,296 C1443.25,293.929688 1444.92969,292.25 1447,292.25 C1449.07031,292.25 1450.75,293.929688 1450.75,296 C1450.75,298.070312 1449.07031,299.75 1447,299.75 Z M1454.5,303.919922 L1439.5,303.919922 C1439.26562,303.919922 1439.08008,303.734375 1439.08008,303.5 L1439.08008,294.75 L1441.29688,294.75 C1441.20898,295.150391 1441.16992,295.570312 1441.16992,296 C1441.16992,299.222656 1443.77734,301.830078 1447,301.830078 C1450.22266,301.830078 1452.83008,299.222656 1452.83008,296 C1452.83008,295.570312 1452.79102,295.150391 1452.70312,294.75 L1454.91992,294.75 L1454.91992,303.5 C1454.91992,303.734375 1454.73438,303.919922 1454.5,303.919922 Z" id="ms-icon-instagram"></path>
        </g>
    </g>
</svg>