<svg width="20" height="20" viewBox="0 0 20 20" fill="none" xmlns="http://www.w3.org/2000/svg">
<path d="M10.0001 0.000150003C4.47728 0.000150003 0 4.47728 0 10.0001C0 15.523 4.47728 20 10.0001 20C15.5235 20 20.0003 15.5232 20.0003 10.0001C20.0003 4.47758 15.5235 0.000600011 9.99993 0.000600011L10.0001 0V0.000150003ZM14.5861 14.4231C14.407 14.7168 14.0225 14.8101 13.7287 14.6296C11.3808 13.1954 8.42505 12.8707 4.94409 13.666C4.60868 13.7423 4.27432 13.5322 4.19782 13.1966C4.12102 12.8611 4.33043 12.5267 4.66673 12.4504C8.47605 11.5801 11.7436 11.9548 14.3796 13.5656C14.6734 13.7459 14.7666 14.1292 14.5861 14.4231ZM15.8101 11.7002C15.5844 12.067 15.1044 12.1828 14.7378 11.9572C12.0497 10.3049 7.95239 9.82637 4.77293 10.7916C4.36058 10.9161 3.92512 10.6838 3.80002 10.2722C3.67581 9.85982 3.90832 9.42526 4.31993 9.29986C7.95164 8.19794 12.4666 8.73165 15.5535 10.6286C15.9201 10.8543 16.0359 11.3343 15.8103 11.7005V11.7004L15.8101 11.7002ZM15.9153 8.86485C12.6922 6.95052 7.37473 6.77457 4.29757 7.70849C3.80347 7.85834 3.28086 7.57948 3.13115 7.08522C2.98145 6.59082 3.26016 6.06866 3.75457 5.9185C7.28698 4.84613 13.1591 5.05329 16.8699 7.25623C17.3153 7.52008 17.4611 8.09399 17.1971 8.53785C16.9342 8.98231 16.3587 9.12886 15.9157 8.86485H15.9153Z" fill="#1ED760"/>
</svg>
