<svg width="14" height="14" viewBox="0 0 14 14" fill="none" xmlns="http://www.w3.org/2000/svg">
<g clip-path="url(#clip0_31_32010)">
<path fill-rule="evenodd" clip-rule="evenodd" d="M7 0C3.14157 0 0 3.14157 0 7C0 10.8584 3.14157 14 7 14C10.8584 14 14 10.8584 14 7C14 3.14157 10.8584 0 7 0ZM6.99988 12.9457C3.71073 12.9457 1.0541 10.268 1.0541 6.99988C1.0541 3.73181 3.71073 1.0541 6.99988 1.0541C10.289 1.0541 12.9457 3.71073 12.9457 6.99988C12.9457 10.289 10.289 12.9457 6.99988 12.9457ZM6 8H7H9V7L7 7L7 3H6L6 7V8Z" fill="#4C4C4C"/>
</g>
<defs>
<clipPath id="clip0_31_32010">
<rect width="14" height="14" fill="white"/>
</clipPath>
</defs>
</svg>
