<svg width="20" height="20" viewBox="0 0 20 20" fill="none" xmlns="http://www.w3.org/2000/svg">
<path d="M1.36102 0.305433C1.13675 0.546115 1 0.918077 1 1.39944V18.5973C1 19.0786 1.13128 19.4506 1.36102 19.6913L1.41572 19.746L11.0485 10.1132V9.99835V9.88348L1.42119 0.250732L1.36102 0.305433Z" fill="#5BC8F3"/>
<path d="M14.2646 13.3239L11.0537 10.113V9.99815V9.88328L14.2646 6.67236L14.3357 6.71612L18.1429 8.87679C19.2314 9.4949 19.2314 10.5069 18.1429 11.1195L14.3357 13.2802L14.2646 13.3239Z" fill="url(#paint0_linear_54_57957)"/>
<path d="M14.3363 13.2803L11.0542 9.99829L1.36133 19.6912C1.72235 20.0686 2.31312 20.1179 2.97499 19.7404L14.3363 13.2803Z" fill="url(#paint1_linear_54_57957)"/>
<path d="M14.3357 6.71622L2.97987 0.261574C2.31253 -0.115859 1.72176 -0.0720972 1.36621 0.310806L11.0537 9.99825L14.3357 6.71622Z" fill="url(#paint2_linear_54_57957)"/>
<defs>
<linearGradient id="paint0_linear_54_57957" x1="17.4348" y1="9.99842" x2="-1.38001" y2="9.99842" gradientUnits="userSpaceOnUse">
<stop stop-color="#FFDF00"/>
<stop offset="0.4087" stop-color="#FBBC0E"/>
<stop offset="0.7754" stop-color="#F9A418"/>
<stop offset="1" stop-color="#F89B1C"/>
</linearGradient>
<linearGradient id="paint1_linear_54_57957" x1="12.5527" y1="11.7829" x2="-5.14362" y2="29.4792" gradientUnits="userSpaceOnUse">
<stop stop-color="#EE4447"/>
<stop offset="1" stop-color="#C5166C"/>
</linearGradient>
<linearGradient id="paint2_linear_54_57957" x1="-5.22305" y1="-9.56155" x2="9.2255" y2="4.887" gradientUnits="userSpaceOnUse">
<stop stop-color="#269E6F"/>
<stop offset="0.05089" stop-color="#2BA06F"/>
<stop offset="0.4663" stop-color="#53B26B"/>
<stop offset="0.7971" stop-color="#6BBD69"/>
<stop offset="1" stop-color="#74C168"/>
</linearGradient>
</defs>
</svg>
