<svg width="76" height="76" viewBox="0 0 76 76" fill="none" xmlns="http://www.w3.org/2000/svg">
<path d="M28.9062 53.9375L53.9375 38L28.9062 22.0625V53.9375ZM38 75.5C32.875 75.5 28.0312 74.5156 23.4688 72.5469C18.9062 70.5781 14.9219 67.8906 11.5156 64.4844C8.10938 61.0781 5.42187 57.0938 3.45312 52.5312C1.48437 47.9688 0.5 43.125 0.5 38C0.5 32.8125 1.48437 27.9375 3.45312 23.375C5.42187 18.8125 8.10938 14.8438 11.5156 11.4688C14.9219 8.09375 18.9062 5.42187 23.4688 3.45312C28.0312 1.48437 32.875 0.5 38 0.5C43.1875 0.5 48.0625 1.48437 52.625 3.45312C57.1875 5.42187 61.1563 8.09375 64.5312 11.4688C67.9062 14.8438 70.5781 18.8125 72.5469 23.375C74.5156 27.9375 75.5 32.8125 75.5 38C75.5 43.125 74.5156 47.9688 72.5469 52.5312C70.5781 57.0938 67.9062 61.0781 64.5312 64.4844C61.1563 67.8906 57.1875 70.5781 52.625 72.5469C48.0625 74.5156 43.1875 75.5 38 75.5Z" fill="white"/>
</svg>
